<svg xmlns="http://www.w3.org/2000/svg" version="1.1" xmlns:xlink="http://www.w3.org/1999/xlink" viewBox="0 0 200 200"><rect width="200" height="200" fill="url('#gradient')"></rect><defs><linearGradient id="gradient" gradientTransform="rotate(340 0.5 0.5)"><stop offset="0%" stop-color="#00ffe3"></stop><stop offset="100%" stop-color="#fdffcf"></stop></linearGradient></defs><g><g fill="#1b3855" transform="matrix(4.2456071076011845,0,0,4.2456071076011845,13.025457684720735,125.07350913346225)" stroke="#0e5278" stroke-width="0"><path d="M13.13-7.47L13.13-6.82Q13.13-4.84 12.48-3.37Q11.83-1.90 10.67-1.02L10.67-1.02L12.97 0.80L10.85 2.60L7.79 0.14Q7.36 0.20 6.93 0.20L6.93 0.20Q5.12 0.20 3.71-0.64Q2.30-1.48 1.52-3.05Q0.73-4.61 0.70-6.64L0.70-6.64L0.70-7.39Q0.70-9.49 1.47-11.08Q2.24-12.68 3.66-13.54Q5.08-14.41 6.91-14.41L6.91-14.41Q8.72-14.41 10.14-13.55Q11.55-12.70 12.34-11.11Q13.13-9.52 13.13-7.47L13.13-7.47ZM9.65-6.76L9.65-7.41Q9.65-9.53 8.94-10.63Q8.23-11.73 6.91-11.73L6.91-11.73Q5.56-11.73 4.87-10.64Q4.19-9.56 4.18-7.47L4.18-7.47L4.18-6.82Q4.18-4.72 4.87-3.60Q5.57-2.48 6.93-2.48L6.93-2.48Q8.24-2.48 8.94-3.58Q9.64-4.69 9.65-6.76L9.65-6.76ZM16.77-3.19L16.77-3.19Q17.55-3.19 18.07-2.73Q18.58-2.27 18.58-1.54Q18.58-0.82 18.07-0.36Q17.55 0.11 16.77 0.11L16.77 0.11Q15.98 0.11 15.46-0.36Q14.95-0.83 14.95-1.54Q14.95-2.26 15.46-2.72Q15.98-3.19 16.77-3.19ZM28.72 0L26.21-5.02L24.36-5.02L24.36 0L20.93 0L20.93-14.22L26.52-14.22Q29.05-14.22 30.48-13.10Q31.90-11.97 31.90-9.92L31.90-9.92Q31.90-8.44 31.30-7.46Q30.70-6.48 29.42-5.88L29.42-5.88L32.39-0.15L32.39 0L28.72 0ZM24.36-11.57L24.36-7.67L26.52-7.67Q27.50-7.67 27.99-8.18Q28.49-8.69 28.49-9.61Q28.49-10.53 27.99-11.05Q27.49-11.57 26.52-11.57L26.52-11.57L24.36-11.57ZM40.27-10.64L40.21-7.59L39.13-7.67Q37.58-7.67 37.14-6.69L37.14-6.69L37.14 0L33.85 0L33.85-10.57L36.93-10.57L37.04-9.21Q37.87-10.76 39.36-10.76L39.36-10.76Q39.88-10.76 40.27-10.64L40.27-10.64Z"></path></g></g></svg>